<svg width="34" height="40" viewBox="0 0 34 40" fill="none" xmlns="http://www.w3.org/2000/svg">
<path d="M14.1667 20.6691L10.4975 16.9999L8.5 18.9974L14.1667 24.6641L25.5 13.3308L23.5025 11.3333L14.1667 20.6691Z" fill="#D9F6EF"/>
<path d="M17 39.6666L8.25067 35.0016C5.75639 33.6746 3.67054 31.6934 2.21698 29.2708C0.763414 26.8481 -0.0029935 24.0753 8.78698e-06 21.25V2.83333C0.000758879 2.08212 0.299511 1.36188 0.830701 0.830692C1.36189 0.299502 2.08212 0.000750092 2.83334 0H31.1667C31.9179 0.000750092 32.6381 0.299502 33.1693 0.830692C33.7005 1.36188 33.9992 2.08212 34 2.83333V21.25C34.003 24.0753 33.2366 26.8481 31.783 29.2708C30.3295 31.6934 28.2436 33.6746 25.7493 35.0016L17 39.6666ZM2.83334 2.83333V21.25C2.83099 23.5617 3.45824 25.8304 4.64775 27.8126C5.83727 29.7948 7.54415 31.4157 9.58517 32.5011L17 36.4551L24.4148 32.5026C26.4561 31.417 28.1631 29.7959 29.3526 27.8134C30.5421 25.831 31.1693 23.5619 31.1667 21.25V2.83333H2.83334Z" fill="#D9F6EF"/>
</svg>
