<svg width="26" height="34" viewBox="0 0 26 34" fill="none" xmlns="http://www.w3.org/2000/svg">
<path d="M24.4816 16.9595C24.128 16.1134 23.725 15.1548 23.3337 13.9714C22.3067 10.8735 25.5879 7.49438 25.6191 7.463L23.7809 5.61392C23.5989 5.797 19.331 10.1621 20.8663 14.7978C21.2901 16.0768 21.7139 17.0863 22.0857 17.9755C22.9533 19.6998 23.4036 21.6059 23.4 23.5385C23.2476 25.0962 22.6531 26.5769 21.6873 27.8042C20.7215 29.0314 19.4252 29.9534 17.953 30.4601C18.4181 28.6263 18.4112 26.7035 17.9328 24.8732C17.4545 23.0428 16.5206 21.3652 15.2191 19.9985L13.8619 18.6333L13.1053 20.4078C10.7185 26.01 7.878 28.4554 6.2075 29.4754C5.182 28.8436 4.32023 27.976 3.69308 26.9439C3.06592 25.9118 2.69129 24.7446 2.6 23.5385C2.68967 21.8923 3.10001 20.2799 3.8077 18.7928C4.64698 17.0003 5.12042 15.0567 5.2 13.0769V10.7518C6.3362 11.2226 7.8 12.4558 7.8 15.6923V19.0962L10.0659 16.5672C14.1115 12.0504 13.2678 6.67185 11.6337 3.08746C12.8758 3.50396 13.9425 4.32881 14.662 5.42923C15.3814 6.52964 15.7118 7.84158 15.6 9.15385H18.2C18.2 1.91315 12.2473 0 9.1 0H6.5L8.06 2.091C8.2381 2.33292 11.7806 7.22631 9.8189 12.1445C9.38236 10.9086 8.58237 9.83551 7.52517 9.06776C6.46798 8.30001 5.20362 7.87395 3.9 7.84615H2.6V13.0769C2.51032 14.7231 2.09999 16.3355 1.3923 17.8225C0.553015 19.6151 0.0795819 21.5587 0 23.5385C0 28.5705 4.9699 34 13 34C21.0301 34 26 28.5705 26 23.5385C26.0019 21.2574 25.4824 19.0064 24.4816 16.9595ZM8.8855 30.7648C11.2836 28.768 13.2208 26.27 14.5626 23.4443C15.279 24.6079 15.6859 25.9371 15.7445 27.3045C15.803 28.6718 15.511 30.0314 14.8967 31.2525C14.268 31.3376 13.6344 31.3818 13 31.3846C11.6048 31.3943 10.2167 31.1852 8.8855 30.7648Z" fill="#002E33"/>
</svg>
