<svg width="44" height="42" viewBox="0 0 44 42" fill="none" xmlns="http://www.w3.org/2000/svg">
<path d="M36.6667 18H33.7333V21H36.6667C37.8333 21.0012 38.9517 21.4757 39.7766 22.3193C40.6016 23.163 41.0655 24.3069 41.0667 25.5V31.5H44V25.5C43.9977 23.5116 43.2243 21.6053 41.8495 20.1993C40.4748 18.7933 38.6109 18.0024 36.6667 18ZM33.7333 3C34.6036 3 35.4543 3.26392 36.1778 3.75839C36.9014 4.25285 37.4654 4.95566 37.7984 5.77792C38.1314 6.60019 38.2186 7.50499 38.0488 8.37791C37.879 9.25082 37.46 10.0526 36.8446 10.682C36.2293 11.3113 35.4452 11.7399 34.5917 11.9135C33.7382 12.0872 32.8535 11.9981 32.0495 11.6575C31.2455 11.3169 30.5583 10.7401 30.0749 10.0001C29.5914 9.26005 29.3333 8.39002 29.3333 7.5C29.3333 6.30653 29.7969 5.16193 30.6221 4.31802C31.4472 3.47411 32.5664 3 33.7333 3ZM33.7333 0C32.2829 0 30.8651 0.439867 29.6592 1.26398C28.4532 2.08809 27.5133 3.25943 26.9582 4.62987C26.4032 6.00032 26.2579 7.50832 26.5409 8.96318C26.8239 10.418 27.5223 11.7544 28.5479 12.8033C29.5735 13.8522 30.8801 14.5665 32.3027 14.8559C33.7252 15.1453 35.1997 14.9968 36.5397 14.4291C37.8797 13.8614 39.025 12.9001 39.8308 11.6668C40.6366 10.4334 41.0667 8.98336 41.0667 7.5C41.0667 5.51088 40.2941 3.60322 38.9188 2.1967C37.5435 0.790176 35.6783 0 33.7333 0ZM32.2667 42H29.3333V39C29.3322 37.8069 28.8682 36.663 28.0433 35.8193C27.2184 34.9757 26.0999 34.5012 24.9333 34.5H19.0667C17.9001 34.5012 16.7816 34.9757 15.9567 35.8193C15.1318 36.663 14.6678 37.8069 14.6667 39V42H11.7333V39C11.7357 37.0116 12.509 35.1053 13.8838 33.6993C15.2586 32.2933 17.1225 31.5024 19.0667 31.5H24.9333C26.8775 31.5024 28.7415 32.2933 30.1162 33.6993C31.491 35.1053 32.2643 37.0116 32.2667 39V42ZM22 16.5C22.8702 16.5 23.7209 16.7639 24.4445 17.2584C25.1681 17.7529 25.732 18.4557 26.0651 19.2779C26.3981 20.1002 26.4852 21.005 26.3155 21.8779C26.1457 22.7508 25.7266 23.5526 25.1113 24.182C24.4959 24.8113 23.7119 25.2399 22.8584 25.4135C22.0049 25.5872 21.1202 25.4981 20.3162 25.1575C19.5122 24.8169 18.825 24.2401 18.3415 23.5001C17.8581 22.76 17.6 21.89 17.6 21C17.6 19.8065 18.0636 18.6619 18.8887 17.818C19.7139 16.9741 20.833 16.5 22 16.5ZM22 13.5C20.5496 13.5 19.1318 13.9399 17.9258 14.764C16.7199 15.5881 15.7799 16.7594 15.2249 18.1299C14.6698 19.5003 14.5246 21.0083 14.8076 22.4632C15.0905 23.918 15.789 25.2544 16.8146 26.3033C17.8401 27.3522 19.1468 28.0665 20.5693 28.3559C21.9919 28.6453 23.4664 28.4968 24.8063 27.9291C26.1463 27.3614 27.2916 26.4001 28.0974 25.1668C28.9032 23.9334 29.3333 22.4834 29.3333 21C29.3333 19.0109 28.5607 17.1032 27.1854 15.6967C25.8102 14.2902 23.9449 13.5 22 13.5ZM10.2667 18H7.33333C5.38913 18.0024 3.52522 18.7933 2.15046 20.1993C0.775694 21.6053 0.00232886 23.5116 0 25.5V31.5H2.93333V25.5C2.9345 24.3069 3.39844 23.163 4.22335 22.3193C5.04826 21.4757 6.16674 21.0012 7.33333 21H10.2667V18ZM10.2667 3C11.1369 3 11.9876 3.26392 12.7112 3.75839C13.4348 4.25285 13.9987 4.95566 14.3317 5.77792C14.6648 6.60019 14.7519 7.50499 14.5821 8.37791C14.4123 9.25082 13.9933 10.0526 13.3779 10.682C12.7626 11.3113 11.9786 11.7399 11.1251 11.9135C10.2715 12.0872 9.38685 11.9981 8.58286 11.6575C7.77886 11.3169 7.09168 10.7401 6.6082 10.0001C6.12472 9.26005 5.86667 8.39002 5.86667 7.5C5.86667 6.30653 6.33024 5.16193 7.1554 4.31802C7.98056 3.47411 9.09971 3 10.2667 3ZM10.2667 0C8.81627 0 7.39845 0.439867 6.19249 1.26398C4.98652 2.08809 4.04659 3.25943 3.49155 4.62987C2.93651 6.00032 2.79128 7.50832 3.07424 8.96318C3.3572 10.418 4.05563 11.7544 5.08122 12.8033C6.1068 13.8522 7.41348 14.5665 8.836 14.8559C10.2585 15.1453 11.733 14.9968 13.073 14.4291C14.413 13.8614 15.5583 12.9001 16.3641 11.6668C17.1699 10.4334 17.6 8.98336 17.6 7.5C17.6 5.51088 16.8274 3.60322 15.4521 2.1967C14.0768 0.790176 12.2116 0 10.2667 0Z" fill="#D9F6EF"/>
</svg>
