<svg width="31" height="36" viewBox="0 0 31 36" fill="none" xmlns="http://www.w3.org/2000/svg">
<path d="M12.8567 18.7585L9.52672 15.4285L7.71387 17.2414L12.8567 22.3842L23.1424 12.0985L21.3296 10.2856L12.8567 18.7585Z" fill="#002E33"/>
<path d="M15.4286 36L7.48801 31.7661C5.22429 30.5618 3.33125 28.7638 2.01205 26.5651C0.692846 24.3663 -0.0027168 21.8498 7.97474e-06 19.2857V2.57143C0.00068873 1.88965 0.271825 1.23599 0.753914 0.753906C1.236 0.271817 1.88966 0.000680756 2.57144 0H28.2857C28.9675 0.000680756 29.6212 0.271817 30.1032 0.753906C30.5853 1.23599 30.8565 1.88965 30.8571 2.57143V19.2857C30.8599 21.8498 30.1643 24.3663 28.8451 26.5651C27.5259 28.7638 25.6329 30.5618 23.3692 31.7661L15.4286 36ZM2.57144 2.57143V19.2857C2.5693 21.3837 3.13857 23.4428 4.21813 25.2417C5.2977 27.0407 6.84679 28.5117 8.69915 29.4969L15.4286 33.0853L22.158 29.4981C24.0106 28.5129 25.5598 27.0417 26.6394 25.2425C27.7189 23.4432 28.2881 21.384 28.2857 19.2857V2.57143H2.57144Z" fill="#002E33"/>
</svg>
