<svg width="33" height="39" viewBox="0 0 33 39" fill="none" xmlns="http://www.w3.org/2000/svg">
<path d="M25.0471 0.00878906L27.2634 4.18255L32.0034 4.75853L28.5252 7.89303L29.2209 12.5301L25.0471 9.92148L20.8733 12.5301L21.569 7.89303L18.0908 4.75853L22.9602 4.18255L25.0471 0.00878906Z" fill="#002E33"/>
<path d="M24.6532 15.6593L21.957 14.9665C21.4737 16.8283 20.4494 18.5051 19.0135 19.7851C17.5776 21.065 15.7946 21.8907 13.8897 22.1578C11.9848 22.4248 10.0435 22.1213 8.31099 21.2856C6.5785 20.4498 5.13257 19.1194 4.15589 17.4622C3.17921 15.8051 2.71559 13.8957 2.82361 11.9752C2.93163 10.0547 3.60643 8.20925 4.76278 6.67209C5.91912 5.13493 7.50511 3.97497 9.32039 3.33877C11.1357 2.70257 13.0988 2.61867 14.9617 3.09766L15.656 0.402801C12.9402 -0.303607 10.0658 -0.0762351 7.49489 1.04836C4.92397 2.17295 2.80592 4.12943 1.48128 6.60322C0.156632 9.07701 -0.29764 11.9244 0.191498 14.6876C0.680635 17.4507 2.08476 19.9691 4.17812 21.8379V38.9642L12.5257 33.3992L20.8732 38.9642V21.8629C22.721 20.216 24.0368 18.0565 24.6532 15.6593ZM18.0907 33.7651L12.5257 30.0546L6.96063 33.7651V23.73C8.68723 24.5973 10.5924 25.0498 12.5247 25.0512C14.4569 25.0527 16.3628 24.6031 18.0907 23.7383V33.7651Z" fill="#002E33"/>
</svg>
