<svg width="37" height="35" viewBox="0 0 37 35" fill="none" xmlns="http://www.w3.org/2000/svg">
<path d="M30.8333 15H28.3667V17.5H30.8333C31.8143 17.501 32.7549 17.8964 33.4485 18.5994C34.1422 19.3025 34.5324 20.2557 34.5333 21.25V26.25H37V21.25C36.998 19.593 36.3477 18.0044 35.1917 16.8328C34.0356 15.6611 32.4682 15.002 30.8333 15ZM28.3667 2.5C29.0985 2.5 29.8138 2.71993 30.4223 3.13199C31.0307 3.54404 31.505 4.12971 31.785 4.81494C32.0651 5.50016 32.1383 6.25416 31.9956 6.98159C31.8528 7.70902 31.5004 8.3772 30.983 8.90165C30.4655 9.4261 29.8062 9.78325 29.0885 9.92795C28.3708 10.0726 27.6268 9.99838 26.9507 9.71455C26.2747 9.43072 25.6968 8.95007 25.2902 8.33339C24.8837 7.7167 24.6667 6.99168 24.6667 6.25C24.6667 5.25544 25.0565 4.30161 25.7504 3.59835C26.4443 2.89509 27.3854 2.5 28.3667 2.5ZM28.3667 0C27.147 0 25.9548 0.366556 24.9407 1.05331C23.9265 1.74007 23.1362 2.71619 22.6694 3.85823C22.2027 5.00027 22.0805 6.25693 22.3185 7.46931C22.5564 8.6817 23.1438 9.79534 24.0062 10.6694C24.8686 11.5435 25.9674 12.1388 27.1636 12.3799C28.3598 12.6211 29.5997 12.4973 30.7265 12.0242C31.8534 11.5512 32.8165 10.7501 33.4941 9.72231C34.1717 8.69451 34.5333 7.48613 34.5333 6.25C34.5333 4.5924 33.8836 3.00269 32.7272 1.83058C31.5707 0.65848 30.0022 0 28.3667 0ZM27.1333 35H24.6667V32.5C24.6657 31.5057 24.2756 30.5525 23.5819 29.8494C22.8882 29.1464 21.9477 28.751 20.9667 28.75H16.0333C15.0523 28.751 14.1118 29.1464 13.4181 29.8494C12.7244 30.5525 12.3343 31.5057 12.3333 32.5V35H9.86667V32.5C9.86862 30.843 10.519 29.2544 11.675 28.0828C12.8311 26.9111 14.3984 26.252 16.0333 26.25H20.9667C22.6016 26.252 24.1689 26.9111 25.325 28.0828C26.481 29.2544 27.1314 30.843 27.1333 32.5V35ZM18.5 13.75C19.2318 13.75 19.9471 13.9699 20.5556 14.382C21.1641 14.794 21.6383 15.3797 21.9184 16.0649C22.1984 16.7502 22.2717 17.5042 22.1289 18.2316C21.9861 18.959 21.6338 19.6272 21.1163 20.1517C20.5988 20.6761 19.9396 21.0333 19.2218 21.1779C18.5041 21.3226 17.7602 21.2484 17.0841 20.9645C16.408 20.6807 15.8301 20.2001 15.4236 19.5834C15.017 18.9667 14.8 18.2417 14.8 17.5C14.8 16.5054 15.1898 15.5516 15.8837 14.8483C16.5776 14.1451 17.5187 13.75 18.5 13.75ZM18.5 11.25C17.2803 11.25 16.0881 11.6166 15.074 12.3033C14.0599 12.9901 13.2695 13.9662 12.8027 15.1082C12.336 16.2503 12.2139 17.5069 12.4518 18.7193C12.6898 19.9317 13.2771 21.0453 14.1395 21.9194C15.0019 22.7935 16.1007 23.3888 17.2969 23.6299C18.4932 23.8711 19.7331 23.7473 20.8599 23.2742C21.9867 22.8012 22.9498 22.0001 23.6274 20.9723C24.305 19.9445 24.6667 18.7361 24.6667 17.5C24.6667 15.8424 24.017 14.2527 22.8605 13.0806C21.704 11.9085 20.1355 11.25 18.5 11.25ZM8.63333 15H6.16667C4.53177 15.002 2.96439 15.6611 1.80834 16.8328C0.652288 18.0044 0.00195836 19.593 0 21.25V26.25H2.46667V21.25C2.46765 20.2557 2.85778 19.3025 3.55145 18.5994C4.24513 17.8964 5.18567 17.501 6.16667 17.5H8.63333V15ZM8.63333 2.5C9.36512 2.5 10.0805 2.71993 10.6889 3.13199C11.2974 3.54404 11.7716 4.12971 12.0517 4.81494C12.3317 5.50016 12.405 6.25416 12.2622 6.98159C12.1195 7.70902 11.7671 8.3772 11.2496 8.90165C10.7322 9.4261 10.0729 9.78325 9.35517 9.92795C8.63744 10.0726 7.89349 9.99838 7.2174 9.71455C6.54132 9.43072 5.96346 8.95007 5.5569 8.33339C5.15033 7.7167 4.93333 6.99168 4.93333 6.25C4.93333 5.25544 5.32315 4.30161 6.01704 3.59835C6.71092 2.89509 7.65203 2.5 8.63333 2.5ZM8.63333 0C7.41368 0 6.22142 0.366556 5.20732 1.05331C4.19321 1.74007 3.40282 2.71619 2.93608 3.85823C2.46934 5.00027 2.34722 6.25693 2.58516 7.46931C2.8231 8.6817 3.41042 9.79534 4.27284 10.6694C5.13527 11.5435 6.23406 12.1388 7.43028 12.3799C8.62649 12.6211 9.8664 12.4973 10.9932 12.0242C12.12 11.5512 13.0831 10.7501 13.7607 9.72231C14.4383 8.69451 14.8 7.48613 14.8 6.25C14.8 4.5924 14.1503 3.00269 12.9938 1.83058C11.8374 0.65848 10.2688 0 8.63333 0Z" fill="#002E33"/>
</svg>
