<svg width="44" height="39" viewBox="0 0 44 39" fill="none" xmlns="http://www.w3.org/2000/svg">
<path d="M31.2 21.8401H34.32V24.9601H31.2V21.8401Z" fill="#D9F6EF"/>
<path d="M40.56 7.8H3.12V3.12H37.44V0H3.12C2.29252 0 1.49894 0.328713 0.913827 0.913827C0.328713 1.49894 0 2.29252 0 3.12V35.88C0 36.7075 0.328713 37.5011 0.913827 38.0862C1.49894 38.6713 2.29252 39 3.12 39H40.56C41.3875 39 42.1811 38.6713 42.7662 38.0862C43.3513 37.5011 43.68 36.7075 43.68 35.88V10.92C43.68 10.0925 43.3513 9.29894 42.7662 8.71383C42.1811 8.12871 41.3875 7.8 40.56 7.8ZM3.12 35.88V10.92H40.56V15.6H28.08C27.2525 15.6 26.4589 15.9287 25.8738 16.5138C25.2887 17.0989 24.96 17.8925 24.96 18.72V28.08C24.96 28.9075 25.2887 29.7011 25.8738 30.2862C26.4589 30.8713 27.2525 31.2 28.08 31.2H40.56V35.88H3.12ZM40.56 18.72V28.08H28.08V18.72H40.56Z" fill="#D9F6EF"/>
</svg>
