<svg width="49" height="49" viewBox="0 0 49 49" fill="none" xmlns="http://www.w3.org/2000/svg">
<path d="M49 46.5255L40.7943 38.3215C42.9872 35.499 44.0219 31.9468 43.6876 28.3882C43.3534 24.8295 41.6753 21.5321 38.9952 19.1673C36.315 16.8026 32.8342 15.5482 29.2617 15.6598C25.6892 15.7714 22.2935 17.2404 19.7661 19.7678C17.2387 22.2952 15.7696 25.6909 15.6581 29.2635C15.5465 32.836 16.8008 36.3167 19.1656 38.9969C21.5304 41.6771 24.8278 43.3551 28.3864 43.6894C31.945 44.0236 35.4973 42.9889 38.3197 40.796L46.5255 49L49 46.5255ZM29.75 40.25C27.6733 40.25 25.6432 39.6342 23.9165 38.4804C22.1898 37.3267 20.844 35.6868 20.0493 33.7682C19.2545 31.8495 19.0466 29.7384 19.4518 27.7016C19.8569 25.6648 20.8569 23.7938 22.3254 22.3254C23.7938 20.8569 25.6648 19.8569 27.7016 19.4518C29.7384 19.0466 31.8495 19.2545 33.7682 20.0493C35.6868 20.844 37.3267 22.1898 38.4804 23.9165C39.6342 25.6432 40.25 27.6733 40.25 29.75C40.2468 32.5338 39.1395 35.2026 37.171 37.171C35.2026 39.1395 32.5338 40.2468 29.75 40.25ZM0 17.5H14V21H0V17.5ZM0 0H28V3.5H0V0ZM0 8.75H28V12.25H0V8.75Z" fill="#D9F6EF"/>
</svg>
