<svg width="51" height="36" viewBox="0 0 51 36" fill="none" xmlns="http://www.w3.org/2000/svg">
<path d="M43.7143 36C42.2733 36 40.8647 35.5777 39.6666 34.7866C38.4684 33.9954 37.5346 32.8709 36.9832 31.5553C36.4317 30.2397 36.2874 28.792 36.5686 27.3953C36.8497 25.9987 37.5436 24.7158 38.5625 23.7088C39.5814 22.7019 40.8796 22.0162 42.2929 21.7383C43.7062 21.4605 45.1711 21.6031 46.5024 22.1481C47.8337 22.693 48.9716 23.6159 49.7721 24.7999C50.5727 25.9839 51 27.376 51 28.8C50.9976 30.7088 50.2292 32.5388 48.8634 33.8885C47.4976 35.2383 45.6458 35.9976 43.7143 36V36ZM43.7143 25.2C42.9938 25.2 42.2895 25.4111 41.6904 25.8067C41.0914 26.2023 40.6244 26.7645 40.3487 27.4223C40.073 28.0802 40.0009 28.804 40.1414 29.5023C40.282 30.2007 40.6289 30.8421 41.1384 31.3456C41.6479 31.8491 42.297 32.1919 43.0036 32.3308C43.7102 32.4697 44.4427 32.3984 45.1083 32.126C45.774 31.8535 46.3429 31.3921 46.7432 30.8001C47.1435 30.208 47.3571 29.512 47.3571 28.8C47.3562 27.8455 46.9721 26.9304 46.2891 26.2555C45.6062 25.5805 44.6801 25.201 43.7143 25.2V25.2ZM40.0714 0H29.1429V3.6H40.0714C40.5545 3.6 41.0178 3.78964 41.3594 4.12721C41.701 4.46477 41.8929 4.92261 41.8929 5.4C41.8929 5.87739 41.701 6.33523 41.3594 6.67279C41.0178 7.01036 40.5545 7.2 40.0714 7.2H34.6071C34.3378 7.20016 34.0718 7.25937 33.8284 7.37335C33.5849 7.48733 33.3701 7.65325 33.1994 7.85916C33.0286 8.06507 32.9063 8.30583 32.841 8.56411C32.7758 8.82239 32.7693 9.09176 32.8221 9.3528L34.5051 17.6706L29.9334 25.2H25.0337L20.349 9.765C20.1269 9.02162 19.6665 8.3696 19.0372 7.90703C18.4078 7.44446 17.6435 7.19634 16.8591 7.2H7.28571V10.8H16.8591L17.952 14.4H9.10714C6.69267 14.4029 4.37791 15.352 2.67061 17.0392C0.963321 18.7264 0.00289217 21.0139 0 23.4V27C0 27.4774 0.1919 27.9352 0.533484 28.2728C0.875068 28.6104 1.33836 28.8 1.82143 28.8H3.64286C3.64286 30.7096 4.41046 32.5409 5.77679 33.8912C7.14313 35.2414 8.99628 36 10.9286 36C12.8609 36 14.714 35.2414 16.0803 33.8912C17.4467 32.5409 18.2143 30.7096 18.2143 28.8H30.9643C31.2786 28.7999 31.5875 28.7195 31.861 28.5665C32.1346 28.4136 32.3634 28.1932 32.5253 27.927L37.9895 18.927C38.2228 18.5428 38.3027 18.0865 38.2136 17.6472L36.8293 10.8H40.0714C41.5206 10.8 42.9105 10.2311 43.9353 9.21838C44.96 8.20568 45.5357 6.83217 45.5357 5.4C45.5357 3.96783 44.96 2.59432 43.9353 1.58162C42.9105 0.568926 41.5206 3.01807e-08 40.0714 0V0ZM10.9286 32.4C9.96272 32.399 9.03671 32.0195 8.35375 31.3445C7.67079 30.6696 7.28668 29.7545 7.28571 28.8H14.5714C14.5705 29.7545 14.1864 30.6696 13.5034 31.3445C12.8204 32.0195 11.8944 32.399 10.9286 32.4V32.4ZM3.64286 25.2V23.4C3.6443 21.9683 4.22047 20.5956 5.24491 19.5832C6.26935 18.5708 7.65837 18.0014 9.10714 18H19.0449L21.2306 25.2H3.64286Z" fill="#D9F6EF"/>
</svg>
