<svg width="40" height="43" viewBox="0 0 40 43" fill="none" xmlns="http://www.w3.org/2000/svg">
<path d="M36.6667 3.30769H30V0H26.6667V3.30769H13.3333V0H10V3.30769H3.33333C1.5 3.30769 0 4.79615 0 6.61538V39.6923C0 41.5115 1.5 43 3.33333 43H36.6667C38.5 43 40 41.5115 40 39.6923V6.61538C40 4.79615 38.5 3.30769 36.6667 3.30769ZM36.6667 39.6923H3.33333V16.5385H36.6667V39.6923ZM36.6667 13.2308H3.33333V6.61538H10V9.92308H13.3333V6.61538H26.6667V9.92308H30V6.61538H36.6667V13.2308Z" fill="#D9F6EF"/>
</svg>
