<svg width="221" height="66" viewBox="0 0 221 66" fill="none" xmlns="http://www.w3.org/2000/svg">
<g clip-path="url(#clip0_62_3)">
<mask id="mask0_62_3" style="mask-type:luminance" maskUnits="userSpaceOnUse" x="0" y="0" width="66" height="66">
<path d="M65.0431 0H0V65.0431H65.0431V0Z" fill="white"/>
</mask>
<g mask="url(#mask0_62_3)">
<path fill-rule="evenodd" clip-rule="evenodd" d="M32.6002 13.7812L65.0066 32.564L65.043 32.5275L32.5276 0L31.7646 0.750823L13.7812 32.6002L32.6002 13.7812Z" fill="url(#paint0_linear_62_3)"/>
<path fill-rule="evenodd" clip-rule="evenodd" d="M13.7812 32.6001L31.7646 0.750732L0 32.5275L32.5275 65.043L36.7297 60.8287L36.875 60.5623L37.1535 51.3101L34.8284 48.8881L32.4427 51.2738L13.7812 32.6001Z" fill="url(#paint1_linear_62_3)"/>
<path fill-rule="evenodd" clip-rule="evenodd" d="M32.6001 13.7812L51.2738 32.5034L45.7395 43.2088L50.0386 47.5079L64.9824 32.5639L32.5759 13.7812H32.6001ZM40.0599 54.3015L36.875 60.5261V60.6713L41.6341 55.9121L40.0599 54.3015Z" fill="url(#paint2_linear_62_3)"/>
<path fill-rule="evenodd" clip-rule="evenodd" d="M51.2737 32.5037L43.1359 40.6294L45.7637 43.2574L51.2737 32.5037ZM37.1535 51.3591L36.875 60.6111L40.0599 54.3866L37.1535 51.3591Z" fill="url(#paint3_linear_62_3)"/>
<path fill-rule="evenodd" clip-rule="evenodd" d="M44.8794 57.1956L29.3059 41.0044H41.6097L62.7053 62.1121L44.8794 57.1956Z" fill="url(#paint4_linear_62_3)"/>
</g>
<path d="M79.3472 36.802C79.9412 36.7836 80.4119 36.9679 80.7584 37.3505C81.1048 37.7331 81.4467 38.1798 81.7833 38.6913C81.2085 38.9628 80.6296 39.1938 80.0456 39.3781C79.4608 39.5581 78.9116 39.6501 78.3962 39.6501C77.4451 39.6501 76.5983 39.4468 75.8565 39.0415C75.1133 38.6366 74.4843 38.1067 73.9695 37.4518C73.4546 36.7977 73.058 36.0607 72.7815 35.2407C72.5042 34.4201 72.365 33.5951 72.365 32.7654C72.365 31.6598 72.553 30.623 72.93 29.655C73.3062 28.6876 73.856 27.8436 74.5793 27.1256C75.3021 26.4065 76.1831 25.8352 77.2233 25.4114C78.2628 24.9876 79.4463 24.7756 80.7741 24.7756C81.19 24.7756 81.6005 24.7849 82.007 24.8033C82.413 24.8218 82.8539 24.8635 83.3291 24.9274C83.8037 24.9925 84.329 25.0797 84.9032 25.1903C85.4781 25.3003 86.1413 25.4384 86.8944 25.6048V46.0644H82.8539V27.8444C82.4572 27.7527 82.0909 27.6926 81.7543 27.665C81.4177 27.6373 81.1404 27.6231 80.9227 27.6231C80.2487 27.6231 79.6548 27.7472 79.14 27.9967C78.6245 28.2454 78.1935 28.6004 77.847 29.0512C77.5005 29.5033 77.2385 30.0518 77.0597 30.6875C76.8814 31.3231 76.793 32.0241 76.793 32.7795C76.793 33.2267 76.8326 33.6873 76.9112 34.1665C76.991 34.6499 77.1244 35.0878 77.313 35.4846C77.5012 35.8807 77.758 36.2081 78.0852 36.4568C78.412 36.705 78.8317 36.8204 79.3472 36.802Z" fill="#121212"/>
<path d="M101.061 39.4007C100.605 38.9031 100.298 38.4099 100.139 37.921C99.981 37.4327 99.9018 36.9118 99.9018 36.3596V25.1066H104.061V35.9174C104.061 36.9861 104.22 38.1476 104.536 39.4007H101.061ZM94.4952 35.2535C94.4952 35.7141 94.594 36.0925 94.7921 36.3873C94.9901 36.6822 95.3472 36.8296 95.8619 36.8296C96.06 36.8296 96.248 36.8061 96.4263 36.7601C96.6045 36.7134 96.8328 36.6815 97.1101 36.6637C97.3477 36.6447 97.5602 36.6913 97.7483 36.8019C97.9363 36.9118 98.1199 37.055 98.298 37.23C98.4763 37.4051 98.6398 37.6035 98.7885 37.8239C98.9363 38.0456 99.0801 38.2661 99.2194 38.4879C98.2287 38.967 97.3674 39.2986 96.6341 39.4829C95.9016 39.6678 95.1888 39.7593 94.4952 39.7593C93.9757 39.7593 93.4701 39.6678 92.9705 39.4829C92.4702 39.2986 92.024 39.0222 91.6385 38.6537C91.2471 38.2847 90.935 37.8239 90.6974 37.2718C90.4544 36.7183 90.3357 36.0642 90.3357 35.3081V25.106H94.4952V35.2535Z" fill="#121212"/>
<path d="M117.814 39.4007C117.537 39.2533 117.314 39.0549 117.145 38.806C116.977 38.5579 116.834 38.2951 116.714 38.0187L116.625 37.4653L116.269 37.9351C115.377 38.6906 114.596 39.1837 113.922 39.4147C113.249 39.6451 112.536 39.76 111.783 39.76C111.07 39.76 110.431 39.6451 109.866 39.4147C109.302 39.1837 108.817 38.8749 108.41 38.4885C108.004 38.1011 107.697 37.6587 107.489 37.1613C107.281 36.6638 107.177 36.1379 107.177 35.5851C107.177 35.0139 107.306 34.4611 107.564 33.9261C107.821 33.3918 108.262 32.9077 108.885 32.4748C109.509 32.0417 110.347 31.6731 111.397 31.3692C112.446 31.0644 113.753 30.8576 115.318 30.7469C115.219 31.3919 115.016 31.9545 114.709 32.4336C114.402 32.9126 113.932 33.2076 113.298 33.3186C112.545 33.4292 112 33.6596 111.663 34.0103C111.327 34.3604 111.158 34.7658 111.158 35.2265C111.158 35.7056 111.342 36.1066 111.708 36.4297C112.074 36.7522 112.515 36.9131 113.03 36.9131C113.604 36.9131 114.179 36.7331 114.753 36.3738C115.328 36.0144 115.873 35.5489 116.388 34.9776V30.8028C116.388 29.8447 116.105 29.08 115.541 28.5081C114.976 27.9369 114.169 27.6507 113.119 27.6507C112.624 27.6507 112.094 27.6967 111.53 27.7889C110.965 27.881 110.337 28.0468 109.644 28.2864L108.633 25.8534C109.525 25.485 110.436 25.2178 111.366 25.0519C112.297 24.8861 113.109 24.8032 113.803 24.8032C115.922 24.8032 117.551 25.3148 118.69 26.338C119.829 27.3614 120.398 28.8491 120.398 30.8028V35.918C120.398 36.434 120.433 36.9819 120.502 37.5629C120.571 38.1434 120.695 38.757 120.874 39.4019L117.814 39.4007Z" fill="#121212"/>
<path d="M129.248 39.7594C128.178 39.7594 127.217 39.5703 126.367 39.1932C125.515 38.8154 124.801 38.2854 124.227 37.6036C123.653 36.9212 123.212 36.1147 122.905 35.1842C122.598 34.2536 122.445 33.2445 122.445 32.1567C122.445 31.1801 122.623 30.2495 122.98 29.3645C123.337 28.4794 123.816 27.7055 124.42 27.0415C125.026 26.3781 125.724 25.8474 126.516 25.4519C127.308 25.0552 128.13 24.8574 128.981 24.8574C129.496 24.8574 129.996 24.8899 130.482 24.9544C130.966 25.0188 131.596 25.1522 132.368 25.3555C132.091 26.0004 131.774 26.5213 131.416 26.9174C131.06 27.3136 130.634 27.5299 130.139 27.5672C129.526 27.6042 129.01 27.7423 128.595 27.9813C128.178 28.2214 127.841 28.5396 127.585 28.9352C127.327 29.3319 127.139 29.8066 127.02 30.3589C126.901 30.9122 126.841 31.5112 126.841 32.1561C126.841 32.8016 126.911 33.4097 127.049 33.9816C127.188 34.5521 127.392 35.0546 127.658 35.4882C127.925 35.9213 128.258 36.267 128.654 36.5256C129.05 36.7836 129.494 36.9125 129.99 36.9125C131.08 36.9125 132.228 36.2676 133.436 34.9771V19.6917L137.596 18.4431V35.9175C137.596 36.4334 137.63 36.9814 137.7 37.5624C137.769 38.1427 137.883 38.7564 138.041 39.4014H134.842C134.579 39.2724 134.367 39.0881 134.199 38.848C134.03 38.6084 133.891 38.3597 133.792 38.1017L133.643 37.466L133.138 38.074C132.366 38.719 131.668 39.1612 131.044 39.4014C130.421 39.6414 129.823 39.7594 129.248 39.7594Z" fill="#121212"/>
<path d="M162.128 39.4007C161.851 39.2533 161.629 39.0549 161.46 38.806C161.292 38.5579 161.149 38.2951 161.029 38.0187L160.941 37.4653L160.584 37.9351C159.692 38.6906 158.911 39.1837 158.236 39.4147C157.564 39.6451 156.85 39.76 156.097 39.76C155.383 39.76 154.745 39.6451 154.18 39.4147C153.616 39.1837 153.131 38.8749 152.725 38.4885C152.318 38.1011 152.012 37.6587 151.803 37.1613C151.595 36.6638 151.492 36.1379 151.492 35.5851C151.492 35.0139 151.62 34.4611 151.877 33.9261C152.136 33.3918 152.577 32.9077 153.2 32.4748C153.824 32.0417 154.661 31.6731 155.71 31.3692C156.761 31.0644 158.068 30.8576 159.632 30.7469C159.534 31.3919 159.331 31.9545 159.024 32.4336C158.716 32.9126 158.246 33.2076 157.612 33.3186C156.86 33.4292 156.314 33.6596 155.979 34.0103C155.642 34.3604 155.472 34.7658 155.472 35.2265C155.472 35.7056 155.657 36.1066 156.022 36.4297C156.39 36.7522 156.829 36.9131 157.344 36.9131C157.919 36.9131 158.493 36.7331 159.067 36.3738C159.642 36.0144 160.186 35.5489 160.701 34.9776V30.8028C160.701 29.8447 160.42 29.08 159.855 28.5081C159.291 27.9369 158.483 27.6507 157.433 27.6507C156.939 27.6507 156.408 27.6967 155.845 27.7889C155.28 27.881 154.65 28.0468 153.958 28.2864L152.948 25.8534C153.84 25.485 154.75 25.2178 155.681 25.0519C156.612 24.8861 157.425 24.8032 158.117 24.8032C160.237 24.8032 161.866 25.3148 163.004 26.338C164.143 27.3614 164.713 28.8491 164.713 30.8028V35.918C164.713 36.434 164.748 36.9819 164.816 37.5629C164.886 38.1434 165.009 38.757 165.187 39.4019L162.128 39.4007Z" fill="#121212"/>
<path d="M178.139 25.106V27.8429H173.86C173.96 27.5481 174.089 27.2348 174.247 26.9031C174.405 26.5716 174.604 26.2766 174.841 26.0181C175.079 25.7602 175.361 25.5439 175.688 25.3682C176.015 25.1932 176.396 25.106 176.832 25.106H178.139Z" fill="#121212"/>
<path d="M168.928 27.8428H166.463V25.6587L168.928 25.1053V24.3314C168.928 23.4284 169.081 22.6036 169.389 21.8567C169.695 21.1104 170.131 20.4747 170.696 19.9489C171.26 19.4238 171.944 19.0185 172.746 18.7328C173.548 18.4472 174.444 18.3047 175.434 18.3047C175.93 18.3047 176.518 18.3642 177.201 18.4841C177.886 18.6038 178.613 18.8206 179.386 19.1339L178.464 21.595C177.89 21.4476 177.399 21.3371 176.994 21.2627C176.588 21.189 176.215 21.1528 175.88 21.1528C174.91 21.1528 174.162 21.4427 173.636 22.0237C173.111 22.6042 172.85 23.3744 172.85 24.3326V39.4012H168.928V27.8428Z" fill="#121212"/>
<path d="M194.79 32.2396C194.79 33.4195 194.557 34.4741 194.092 35.4053C193.627 36.3358 193.022 37.1238 192.28 37.7689C191.537 38.4137 190.685 38.9069 189.724 39.2478C188.764 39.5893 187.799 39.7595 186.829 39.7595C185.778 39.7595 184.774 39.5936 183.813 39.2619C182.853 38.9302 182.005 38.4463 181.272 37.8105C180.539 37.1742 179.956 36.3867 179.519 35.4471C179.083 34.5067 178.866 33.4373 178.866 32.2396C178.866 30.9491 179.119 29.8295 179.623 28.8804C180.128 27.9315 180.772 27.1527 181.554 26.544C182.337 25.9359 183.199 25.4845 184.139 25.1891C185.081 24.8942 185.977 24.7468 186.829 24.7468C188.017 24.7468 189.096 24.9311 190.066 25.2996C190.245 25.3677 190.418 25.4402 190.587 25.5176C189.135 26.0182 188.704 27.0747 188.588 28.1072C188.514 28.0574 188.437 28.012 188.359 27.9683C187.912 27.7195 187.402 27.5949 186.829 27.5949C186.253 27.5949 185.744 27.7189 185.298 27.9683C184.853 28.2122 184.481 28.5487 184.183 28.9683C183.886 29.3921 183.659 29.8803 183.501 30.4382C183.342 31.0007 183.263 31.5995 183.263 32.2402C183.263 32.9362 183.347 33.5675 183.515 34.1388C183.684 34.705 183.922 35.1934 184.229 35.6085C184.536 36.0182 184.911 36.3407 185.357 36.5667C185.803 36.7977 186.294 36.9126 186.829 36.9126C187.403 36.9126 187.913 36.7885 188.359 36.5391C188.804 36.2952 189.175 35.9586 189.473 35.5392C189.77 35.1154 189.993 34.6221 190.142 34.0552C190.289 33.4841 190.364 32.8803 190.364 32.2396C190.364 31.5989 190.289 31.0001 190.142 30.4375C190.004 29.9204 189.801 29.4621 189.535 29.0604C189.667 27.9007 190.145 26.4482 191.804 26.216C192.077 26.4095 192.336 26.6207 192.577 26.8487C193.28 27.5121 193.826 28.3 194.211 29.2121C194.598 30.1243 194.79 31.1335 194.79 32.2396Z" fill="#121212"/>
<path d="M218.236 27.8429C217.801 27.8429 217.421 27.7558 217.094 27.5806C216.767 27.4056 216.485 27.1888 216.247 26.9308C216.009 26.6735 215.811 26.3823 215.652 26.0599C215.494 25.7374 215.366 25.4192 215.266 25.106H220.756V27.8429H218.236Z" fill="#EA396E"/>
<path d="M210.334 27.8429H207.868V25.6588L210.334 25.1054V21.7045L214.255 20.5154V33.9249C214.255 34.8646 214.468 35.5981 214.894 36.1232C215.321 36.6484 215.88 36.9106 216.571 36.9106C216.85 36.9106 217.172 36.8829 217.538 36.8284C217.904 36.7724 218.345 36.6625 218.86 36.4961L219.721 39.0119C218.968 39.2521 218.31 39.4357 217.745 39.5652C217.18 39.6943 216.651 39.7587 216.155 39.7587C214.254 39.7587 212.808 39.2612 211.818 38.2655C210.827 37.2705 210.332 35.8234 210.332 33.9249L210.334 27.8429Z" fill="#121212"/>
<path d="M143.794 25.1061C143.953 25.2351 144.155 25.4777 144.314 25.8665C145.639 29.1145 145.6 35.6915 145.6 39.4001H141.707C141.707 35.4127 141.713 28.9695 140.646 25.1055L143.794 25.1061Z" fill="#121212"/>
<path d="M151.117 25.1062V27.8431H145.41C145.507 27.5483 145.637 27.2351 145.795 26.9034C145.954 26.5717 146.152 26.2769 146.39 26.0184C146.628 25.7603 146.911 25.5436 147.236 25.3684C147.564 25.1935 147.946 25.1062 148.38 25.1062H151.117Z" fill="#121212"/>
<path d="M199.062 25.1061C199.221 25.2351 199.423 25.4777 199.581 25.8665C200.906 29.1145 200.867 35.6915 200.867 39.4001H196.974C196.974 35.4127 196.98 28.9695 195.913 25.1055L199.062 25.1061Z" fill="#121212"/>
<path d="M206.384 25.1062V27.8431H200.677C200.776 27.5483 200.905 27.2351 201.062 26.9034C201.221 26.5717 201.42 26.2769 201.658 26.0184C201.896 25.7603 202.177 25.5436 202.504 25.3684C202.831 25.1935 203.211 25.1062 203.648 25.1062H206.384Z" fill="#121212"/>
</g>
<defs>
<linearGradient id="paint0_linear_62_3" x1="27.3445" y1="17.0873" x2="58.7094" y2="23.0212" gradientUnits="userSpaceOnUse">
<stop stop-color="#F15627"/>
<stop offset="1" stop-color="#F8951D"/>
</linearGradient>
<linearGradient id="paint1_linear_62_3" x1="25.758" y1="61.3131" x2="16.8571" y2="21.0472" gradientUnits="userSpaceOnUse">
<stop stop-color="#882889"/>
<stop offset="1" stop-color="#E82968"/>
</linearGradient>
<linearGradient id="paint2_linear_62_3" x1="33.1692" y1="22.8759" x2="43.1964" y2="36.2938" gradientUnits="userSpaceOnUse">
<stop stop-color="#FCAF1D"/>
<stop offset="0.3" stop-color="#FCB61F"/>
<stop offset="0.75" stop-color="#FCCB24"/>
<stop offset="1" stop-color="#FCD927"/>
</linearGradient>
<linearGradient id="paint3_linear_62_3" x1="42.5424" y1="45.4251" x2="44.2136" y2="46.6118" gradientUnits="userSpaceOnUse">
<stop stop-color="#F15627"/>
<stop offset="1" stop-color="#F8951D"/>
</linearGradient>
<linearGradient id="paint4_linear_62_3" x1="35.0583" y1="42.4334" x2="57.704" y2="60.8649" gradientUnits="userSpaceOnUse">
<stop stop-color="#00A651"/>
<stop offset="1" stop-color="#CBE2A4"/>
</linearGradient>
<clipPath id="clip0_62_3">
<rect width="221" height="65.0431" fill="white"/>
</clipPath>
</defs>
</svg>
