<svg width="86" height="86" viewBox="0 0 86 86" fill="none" xmlns="http://www.w3.org/2000/svg">
<circle cx="43" cy="43" r="42.5" stroke="white"/>
<circle cx="43" cy="43" r="35" fill="white"/>
<path d="M57.4453 41.3034C58.1849 42.2708 58.1849 43.5769 57.4453 44.5428C55.1155 47.5841 49.526 53.8462 43.0002 53.8462C36.4745 53.8462 30.885 47.5841 28.5552 44.5428C28.1953 44.0796 28 43.5097 28 42.9231C28 42.3365 28.1953 41.7666 28.5552 41.3034C30.885 38.2621 36.4745 32 43.0002 32C49.526 32 55.1155 38.2621 57.4453 41.3034V41.3034Z" stroke="#002E33" stroke-width="2" stroke-linecap="round" stroke-linejoin="round"/>
<path d="M43.0007 47.6044C45.5861 47.6044 47.682 45.5085 47.682 42.923C47.682 40.3376 45.5861 38.2417 43.0007 38.2417C40.4152 38.2417 38.3193 40.3376 38.3193 42.923C38.3193 45.5085 40.4152 47.6044 43.0007 47.6044Z" stroke="#002E33" stroke-width="2" stroke-linecap="round" stroke-linejoin="round"/>
</svg>